<svg width="200" height="43" viewBox="0 0 200 43" fill="none" xmlns="http://www.w3.org/2000/svg">
<path d="M81.8906 33.4813H79.7264C79.5563 33.4813 79.3931 33.4137 79.2728 33.2934C79.1525 33.1731 79.085 33.01 79.085 32.8398V16.4855C79.085 16.3158 79.1524 16.1529 79.2724 16.0329C79.3925 15.9128 79.5553 15.8454 79.7251 15.8454H81.8164C81.9866 15.8454 82.1497 15.913 82.27 16.0333C82.3903 16.1536 82.4579 16.3167 82.4579 16.4869V17.9447C83.3975 16.0548 85.3351 15.3246 87.3894 15.3246C91.6052 15.3246 94.1909 18.3728 94.1909 22.2917V32.8332C94.1909 33.0033 94.1233 33.1665 94.003 33.2868C93.8827 33.4071 93.7195 33.4747 93.5494 33.4747H91.3865C91.3023 33.4747 91.2188 33.4581 91.141 33.4258C91.0632 33.3936 90.9925 33.3464 90.9329 33.2868C90.8734 33.2272 90.8261 33.1565 90.7939 33.0787C90.7616 33.0009 90.745 32.9175 90.745 32.8332V22.8841C90.745 20.4283 89.7179 18.4483 86.6366 18.4483C83.9237 18.4483 82.5281 20.6112 82.5281 23.2883V32.8412C82.5278 33.0104 82.4606 33.1726 82.3412 33.2925C82.2218 33.4124 82.0599 33.4802 81.8906 33.4813Z" fill="#222222"/>
<path d="M110.336 30.8042C109.493 32.4913 107.623 33.9584 104.873 33.9584C98.9861 33.9584 95.6662 28.6333 96.7013 22.3686C97.409 18.0772 101.449 15.0144 105.781 15.412C108.022 15.6188 109.387 16.3185 110.039 17.457C110.053 17.4798 110.074 17.4974 110.099 17.5072C110.123 17.5169 110.151 17.5182 110.176 17.5107C110.202 17.5033 110.224 17.4877 110.24 17.4662C110.256 17.4447 110.264 17.4186 110.263 17.392V7.79811C110.263 7.68476 110.285 7.57249 110.328 7.46773C110.372 7.36298 110.435 7.2678 110.515 7.18765C110.596 7.1075 110.691 7.04395 110.796 7.00065C110.9 6.95736 111.013 6.93516 111.126 6.93533H112.81C113.039 6.93533 113.259 7.02623 113.42 7.18804C113.582 7.34984 113.673 7.56929 113.673 7.79811V30.2171C113.673 31.1991 113.682 32.0433 113.673 32.6384C113.674 32.7484 113.654 32.8575 113.613 32.9594C113.571 33.0614 113.51 33.1542 113.433 33.2325C113.356 33.3107 113.264 33.3729 113.162 33.4154C113.061 33.4578 112.952 33.4798 112.842 33.48H111.215C110.769 33.48 110.336 33.1433 110.336 32.7007V30.8042ZM105.203 30.9142C108.356 30.9142 110.3 28.1641 110.3 24.5341C110.3 20.9041 108.393 18.4112 105.24 18.4112C102.087 18.4112 100.033 20.9783 100.033 24.6083C100.033 28.2384 101.903 30.9142 105.203 30.9142Z" fill="#222222"/>
<path d="M120.964 18.4483C121.808 16.7612 123.678 15.2954 126.428 15.2954C132.149 15.2954 135.44 20.3316 134.677 26.3591C134.068 31.1368 129.861 34.4024 125.083 33.7928C123.095 33.5396 121.87 32.865 121.262 31.7968C121.248 31.7741 121.228 31.7565 121.203 31.7468C121.178 31.737 121.151 31.7357 121.126 31.7429C121.1 31.7502 121.078 31.7656 121.062 31.7868C121.046 31.8081 121.038 31.834 121.038 31.8605V41.4557C121.038 41.6845 120.947 41.904 120.785 42.0658C120.623 42.2276 120.404 42.3185 120.175 42.3185H118.491C118.262 42.3181 118.043 42.2271 117.881 42.0654C117.719 41.9037 117.628 41.6844 117.628 41.4557V16.6989C117.628 16.1688 117.893 15.7712 118.395 15.7712H120.206C120.65 15.7712 120.969 16.2496 120.969 16.6989V18.4483H120.964ZM126.098 18.3383C122.944 18.3383 121.001 21.0883 121.001 24.7184C121.001 28.3484 122.908 30.8413 126.061 30.8413C129.214 30.8413 131.268 28.2742 131.268 24.6441C131.268 21.0141 129.398 18.3383 126.098 18.3383Z" fill="#222222"/>
<path d="M154.985 24.6508C154.985 30.0408 151.245 34.0379 145.964 34.0379C140.684 34.0379 136.952 30.0408 136.952 24.6508C136.952 19.2978 140.692 15.302 145.964 15.302C151.237 15.302 154.985 19.2912 154.985 24.6508ZM151.465 24.6508C151.465 20.5821 148.899 18.3821 145.964 18.3821C143.03 18.3821 140.464 20.5821 140.464 24.6508C140.464 28.7592 143.032 30.9579 145.964 30.9579C148.897 30.9579 151.465 28.7513 151.465 24.6508Z" fill="#222222"/>
<path d="M160.23 6.74583C160.679 6.85311 161.09 7.08401 161.415 7.41238C161.739 7.74074 161.966 8.15348 162.068 8.60387C162.171 9.05426 162.145 9.52432 161.994 9.96087C161.843 10.3974 161.573 10.783 161.214 11.074C160.856 11.365 160.423 11.5498 159.964 11.6075C159.506 11.6652 159.041 11.5934 158.621 11.4004C158.202 11.2073 157.844 10.9007 157.59 10.5151C157.336 10.1296 157.194 9.68058 157.182 9.21885C157.174 8.84014 157.252 8.46454 157.411 8.12079C157.57 7.77704 157.806 7.47425 158.1 7.23559C158.394 6.99692 158.739 6.82872 159.108 6.74383C159.478 6.65894 159.861 6.65962 160.23 6.74583ZM157.956 32.6199V16.7069C157.956 16.4783 158.047 16.2592 158.209 16.0976C158.371 15.9361 158.59 15.8454 158.819 15.8454H160.495C160.724 15.8454 160.943 15.9362 161.104 16.0977C161.266 16.2593 161.357 16.4784 161.357 16.7069V32.6199C161.357 32.8483 161.266 33.0674 161.104 33.229C160.943 33.3905 160.724 33.4813 160.495 33.4813H158.812C158.584 33.4813 158.364 33.3906 158.203 33.2291C158.041 33.0676 157.95 32.8484 157.949 32.6199H157.956Z" fill="#222222"/>
<path d="M189.254 15.8454H192.435C192.605 15.8454 192.768 15.9128 192.888 16.0329C193.008 16.1529 193.075 16.3158 193.075 16.4855V18.3211C193.075 18.4909 193.008 18.6537 192.888 18.7737C192.768 18.8938 192.605 18.9612 192.435 18.9612H189.254V28.1284C189.254 29.7413 189.917 30.5484 191.711 30.5484C191.906 30.5484 192.138 30.5338 192.361 30.5113C192.45 30.5016 192.54 30.5108 192.625 30.5381C192.71 30.5654 192.788 30.6104 192.855 30.67C192.921 30.7296 192.975 30.8026 193.011 30.8841C193.048 30.9657 193.067 31.0541 193.067 31.1435V32.8491C193.067 32.9956 193.017 33.1376 192.925 33.2514C192.833 33.3652 192.704 33.444 192.561 33.4747C191.958 33.6027 191.342 33.6658 190.725 33.6629C187.718 33.6629 185.812 31.83 185.812 28.6399V18.9652H183.08C182.91 18.9652 182.747 18.8978 182.627 18.7778C182.506 18.6578 182.439 18.495 182.438 18.3251V16.4855C182.439 16.3156 182.506 16.1528 182.627 16.0328C182.747 15.9128 182.91 15.8454 183.08 15.8454H183.392C185.298 15.8454 186.105 14.6712 186.105 13.1312V10.9113C186.105 10.7415 186.173 10.5787 186.293 10.4586C186.413 10.3386 186.576 10.2711 186.745 10.2711H188.618C188.788 10.2711 188.951 10.3386 189.071 10.4586C189.191 10.5787 189.258 10.7415 189.258 10.9113L189.254 15.8454Z" fill="#222222"/>
<path d="M168.636 33.4813H166.474C166.303 33.4813 166.14 33.4138 166.02 33.2935C165.899 33.1732 165.831 33.0101 165.831 32.8398V16.4869C165.831 16.4025 165.847 16.319 165.88 16.2411C165.912 16.1632 165.959 16.0924 166.019 16.0328C166.079 15.9732 166.15 15.926 166.228 15.8938C166.306 15.8617 166.389 15.8452 166.474 15.8454H168.562C168.647 15.8452 168.73 15.8617 168.808 15.8939C168.886 15.926 168.957 15.9733 169.016 16.0329C169.076 16.0925 169.123 16.1633 169.155 16.2412C169.187 16.3191 169.204 16.4026 169.204 16.4869V17.9447C170.143 16.0548 172.082 15.3246 174.135 15.3246C178.352 15.3246 180.938 18.3728 180.938 22.2917V32.8412C180.938 33.0111 180.87 33.1739 180.75 33.2939C180.629 33.4139 180.466 33.4813 180.297 33.4813H178.132C177.962 33.4813 177.799 33.4137 177.679 33.2934C177.558 33.1731 177.491 33.01 177.491 32.8398V22.8841C177.491 20.4283 176.464 18.4483 173.382 18.4483C170.668 18.4483 169.274 20.6112 169.274 23.2883V32.8398C169.274 33.0093 169.207 33.1718 169.087 33.292C168.968 33.4122 168.806 33.4802 168.636 33.4813Z" fill="#222222"/>
<path d="M63.3683 25.5281C63.3525 25.9113 63.3805 26.295 63.4518 26.6719C63.5404 27.2265 63.7431 27.7567 64.0468 28.2291C64.6803 29.3397 65.4676 29.8195 66.4324 30.286C67.0914 30.5831 67.809 30.7276 68.5317 30.7088C69.6608 30.7088 70.5696 30.4662 71.2578 29.9812C71.8872 29.519 72.3729 28.8882 72.6587 28.1615C72.7057 28.0527 72.7837 27.9602 72.8829 27.8954C72.9821 27.8306 73.0982 27.7964 73.2167 27.797H75.41C75.505 27.7979 75.5985 27.8206 75.6832 27.8635C75.7679 27.9065 75.8416 27.9684 75.8984 28.0445C75.9552 28.1205 75.9937 28.2087 76.0109 28.3021C76.028 28.3956 76.0233 28.4917 75.9971 28.583C75.8474 29.2041 75.5966 29.7964 75.255 30.3363C74.758 31.0812 74.3061 31.708 73.6063 32.2156C72.893 32.73 72.0976 33.1194 71.2539 33.3673C70.3688 33.6287 69.4505 33.7599 68.5277 33.757C67.1503 33.757 65.9314 33.5312 64.8712 33.0797C63.8454 32.6532 62.9263 32.0056 62.1795 31.1832C61.4274 30.3389 60.862 29.3453 60.5202 28.2675C60.136 27.064 59.9472 25.8067 59.9609 24.5434C59.9548 23.3387 60.1551 22.1419 60.5533 21.0048C60.9269 19.9247 61.5016 18.925 62.2471 18.0587C63.0101 17.172 63.9596 16.4649 65.0277 15.9879C66.0958 15.5109 67.2561 15.2758 68.4257 15.2994C69.7149 15.2777 70.9895 15.5745 72.1365 16.1635C73.2024 16.7151 74.1333 17.4953 74.8627 18.4483C75.585 19.3972 75.8885 20.3223 76.1443 21.5694C76.3629 22.68 76.4338 23.8145 76.355 24.9437C76.3459 25.1005 76.2774 25.248 76.1634 25.356C76.0494 25.4641 75.8985 25.5247 75.7414 25.5255L63.3683 25.5281ZM73.267 22.9888C73.2234 22.3859 73.0922 21.7925 72.8774 21.2275C72.6754 20.7208 72.3765 20.2585 71.9974 19.8664C71.5439 19.3689 70.9912 18.9721 70.3748 18.7016C69.7584 18.4311 69.0921 18.2929 68.419 18.2959C67.7418 18.2959 66.9453 18.3701 66.3926 18.6073C65.84 18.8446 65.2237 19.1719 64.8288 19.5894C64.3905 20.0353 64.0319 20.5531 63.7685 21.1201C63.5024 21.71 63.3449 22.343 63.3033 22.9888H73.267Z" fill="#222222"/>
<path d="M195.218 11.7648C195.346 11.4718 195.529 11.2062 195.758 10.9828C195.988 10.7612 196.257 10.585 196.553 10.4633C197.169 10.2123 197.859 10.2123 198.476 10.4633C199.071 10.7068 199.547 11.1741 199.801 11.7648C199.935 12.0715 200.003 12.4029 200 12.7375C200.003 13.0778 199.936 13.415 199.801 13.7276C199.676 14.0236 199.496 14.2934 199.271 14.5227C199.042 14.7462 198.772 14.9227 198.476 15.0423C197.859 15.2896 197.17 15.2896 196.553 15.0423C196.257 14.9221 195.987 14.7456 195.758 14.5227C195.528 14.2948 195.345 14.0248 195.218 13.7276C195.084 13.415 195.016 13.0778 195.019 12.7375C195.017 12.4029 195.084 12.0715 195.218 11.7648ZM195.625 13.5818C195.724 13.8315 195.87 14.0596 196.056 14.2537C196.24 14.4447 196.461 14.5966 196.705 14.7003C196.961 14.8104 197.238 14.8659 197.516 14.8633C197.786 14.8652 198.053 14.812 198.302 14.7072C198.551 14.6024 198.775 14.4481 198.962 14.2537C199.148 14.06 199.295 13.8317 199.393 13.5818C199.498 13.3129 199.551 13.0263 199.548 12.7375C199.55 12.4544 199.498 12.1736 199.393 11.9106C199.295 11.6639 199.15 11.439 198.965 11.2486C198.781 11.0582 198.56 10.9062 198.317 10.8013C198.066 10.6926 197.795 10.6375 197.522 10.6396C197.25 10.6373 196.981 10.6897 196.731 10.7938C196.48 10.8978 196.254 11.0514 196.064 11.2452C195.879 11.4361 195.732 11.6612 195.633 11.9079C195.528 12.1709 195.476 12.4518 195.478 12.7349C195.469 13.0234 195.516 13.3109 195.616 13.5818H195.625ZM197.667 11.3009C198.012 11.3009 198.267 11.3694 198.433 11.5063C198.519 11.5845 198.586 11.6812 198.629 11.7892C198.672 11.8971 198.69 12.0134 198.681 12.1292C198.69 12.235 198.675 12.3414 198.637 12.4405C198.6 12.5396 198.54 12.6289 198.463 12.7018C198.307 12.8262 198.118 12.901 197.919 12.9165L198.748 14.1941H198.266L197.471 12.9496H196.994V14.1941H196.544V11.3009H197.667ZM197.471 12.5904C197.572 12.5904 197.669 12.5904 197.759 12.5812C197.842 12.5765 197.924 12.5572 198 12.5242C198.069 12.4949 198.129 12.4455 198.17 12.3824C198.215 12.3016 198.236 12.2097 198.232 12.1173C198.236 12.0362 198.217 11.9557 198.176 11.8854C198.14 11.8294 198.09 11.7838 198.031 11.7528C197.966 11.7209 197.897 11.6994 197.825 11.6892C197.75 11.6787 197.673 11.6734 197.597 11.6733H197.001V12.5904H197.471Z" fill="#222222"/>
<path d="M38.3399 42.8145H14.8514C13.4858 42.8131 12.1765 42.27 11.2108 41.3045C10.2451 40.339 9.7017 39.0299 9.69995 37.6643V33.2338H5.15148C3.78566 33.2324 2.47617 32.6892 1.51039 31.7234C0.544603 30.7576 0.00140846 29.4481 5.09458e-06 28.0823V17.2148C-0.001317 16.1592 0.254704 15.1192 0.745895 14.1848C1.23709 13.2505 1.94864 12.4499 2.81894 11.8526L18.4218 1.14671C19.4874 0.410721 20.7494 0.011463 22.0445 0.000594168C23.3395 -0.0102746 24.608 0.367746 25.6858 1.08575L41.9262 11.8486C42.8214 12.4399 43.5559 13.2442 44.0636 14.1893C44.5713 15.1345 44.8365 16.1909 44.8352 17.2638V36.3138C44.8345 38.0368 44.1502 39.689 42.9323 40.9078C41.7145 42.1266 40.0628 42.8124 38.3399 42.8145ZM12.177 33.2338V37.6643C12.178 38.3733 12.4601 39.0529 12.9614 39.5543C13.4628 40.0556 14.1424 40.3377 14.8514 40.3388H38.3399C39.4063 40.3374 40.4286 39.9127 41.1821 39.1579C41.9356 38.4032 42.3586 37.3803 42.3582 36.3138V17.2638C42.3582 16.6001 42.1934 15.9468 41.8785 15.3625C41.5637 14.7782 41.1088 14.2812 40.5545 13.9161L24.3115 3.15058C23.6447 2.7062 22.86 2.47218 22.0587 2.4788C21.2575 2.48541 20.4767 2.73236 19.8174 3.18769L4.22112 13.8949C3.68321 14.264 3.2433 14.7586 2.93942 15.3359C2.63554 15.9132 2.47683 16.5558 2.47701 17.2081V28.0757C2.47771 28.7848 2.75971 29.4646 3.26112 29.966C3.76253 30.4675 4.44238 30.7495 5.15148 30.7502H9.69995V21.0317C9.7017 19.6661 10.2451 18.3569 11.2108 17.3914C12.1765 16.4259 13.4858 15.8829 14.8514 15.8815H29.9374C31.3029 15.8829 32.6121 16.426 33.5776 17.3915C34.5431 18.357 35.0862 19.6662 35.0876 21.0317V28.0823C35.0862 29.4479 34.5432 30.7572 33.5777 31.7229C32.6122 32.6887 31.303 33.232 29.9374 33.2338H12.177ZM12.177 30.7568H29.9361C30.6451 30.7557 31.3248 30.4736 31.8261 29.9723C32.3274 29.471 32.6095 28.7913 32.6106 28.0823V21.0317C32.6095 20.3227 32.3274 19.643 31.8261 19.1417C31.3248 18.6403 30.6451 18.3582 29.9361 18.3572H14.8514C14.1424 18.3582 13.4628 18.6403 12.9614 19.1417C12.4601 19.643 12.178 20.3227 12.177 21.0317V30.7568Z" fill="#087EA8"/>
</svg>
